# xmcd
#
# Track frame offsets: 
#        150
#        22731
#        68718
#        87371
#        114480
#        147004
#        165748
#        189730
#        224421
#        235910
#        251371
#        278911
#        291539
#        310266
#        331370
#
# Disc length: 4712 seconds
#
# Revision: 0
# Processed by: cddbd v1.5.2PL0 Copyright (c) Steve Scherf et al.
# Submitted via: ExactAudioCopy v0.95a3
#
DISCID=dc12660f
DTITLE=滾石唱片 - 國樂瑰寶 1
DYEAR=2003
DGENRE=Instrumental
TTITLE0=春節序曲
TTITLE1=春江花月夜
TTITLE2=魚舟唱晚
TTITLE3=二泉映月
TTITLE4=十面埋伏
TTITLE5=梅花三弄
TTITLE6=將軍令
TTITLE7=粱祝
TTITLE8=花好月圓
TTITLE9=紫竹調
TTITLE10=寒鴉戲水
TTITLE11=良宵
TTITLE12=采雲追月
TTITLE13=月光下的鳳尾竹
TTITLE14=蘇武牧羊
EXTD=
EXTT0=
EXTT1=
EXTT2=
EXTT3=
EXTT4=
EXTT5=
EXTT6=
EXTT7=
EXTT8=
EXTT9=
EXTT10=
EXTT11=
EXTT12=
EXTT13=
EXTT14=
PLAYORDER=
